Coordinates
version=1
nRows=60
nColumns=12
inDegrees=yes

Units are S.I. units (second, meters, Newtons, ...)
Angles are in degrees

endheader
time	SC_y	SC_z	SC_x	AC_y	AC_z	AC_x	GH_y	GH_z	GH_yy	EL_x	PS_y
       0.0              -11.52          7.031           16.7          69.38         -12.64          17.56         -169.7         -18.57         -134.1          45.63          150.0
   0.03631              -11.53          7.035          16.71          69.37         -12.63          17.55         -169.6         -18.55         -134.0          45.64          150.0
   0.07262              -11.53          7.039          16.72          69.37         -12.63          17.55         -169.6         -18.54         -134.0          45.65          150.1
    0.1089              -11.53          7.043          16.72          69.36         -12.63          17.55         -169.5         -18.53         -134.0          45.66          150.1
    0.1452              -11.54          7.048          16.73          69.36         -12.63          17.54         -169.5         -18.51         -133.9          45.67          150.1
    0.1815              -11.54          7.053          16.74          69.35         -12.62          17.54         -169.4         -18.49         -133.9          45.68          150.1
    0.2179              -11.55          7.059          16.75          69.34         -12.62          17.54         -169.4         -18.48         -133.8          45.69          150.1
    0.2542              -11.55          7.065          16.76          69.34         -12.62          17.53         -169.3         -18.46         -133.8           45.7          150.1
    0.2905              -11.56          7.071          16.77          69.33         -12.62          17.53         -169.2         -18.44         -133.7          45.72          150.1
    0.3268              -11.56          7.078          16.78          69.32         -12.61          17.52         -169.1         -18.41         -133.7          45.73          150.1
    0.3631              -11.57          7.085          16.79          69.31         -12.61          17.52         -169.0         -18.39         -133.6          45.74          150.1
    0.3994              -11.57          7.093           16.8           69.3          -12.6          17.51         -168.9         -18.37         -133.6          45.76          150.1
    0.4357              -11.58          7.101          16.82          69.29          -12.6           17.5         -168.8         -18.34         -133.5          45.78          150.1
     0.472              -11.59           7.11          16.83          69.28         -12.59           17.5         -168.7         -18.31         -133.4           45.8          150.1
    0.5083              -11.59           7.12          16.85          69.26         -12.59          17.49         -168.6         -18.28         -133.3          45.82          150.1
    0.5446               -11.6          7.131          16.87          69.25         -12.58          17.48         -168.5         -18.24         -133.2          45.84          150.1
    0.5809              -11.61          7.142          16.88          69.24         -12.58          17.47         -168.4         -18.21         -133.2          45.86          150.1
    0.6172              -11.62          7.155           16.9          69.22         -12.57          17.46         -168.2         -18.17         -133.0          45.89          150.1
    0.6536              -11.63          7.168          16.93           69.2         -12.56          17.45         -168.0         -18.12         -132.9          45.92          150.1
    0.6899              -11.64          7.183          16.95          69.18         -12.55          17.44         -167.9         -18.07         -132.8          45.95          150.1
    0.7262              -11.66            7.2          16.98          69.16         -12.54          17.43         -167.7         -18.02         -132.7          45.98          150.1
    0.7625              -11.67          7.218          17.01          69.14         -12.53          17.41         -167.5         -17.96         -132.5          46.02          150.1
    0.7988              -11.69          7.238          17.04          69.11         -12.52           17.4         -167.2          -17.9         -132.3          46.06          150.1
    0.8351               -11.7           7.26          17.08          69.08         -12.51          17.38         -166.9         -17.82         -132.2          46.11          150.1
    0.8714              -11.72          7.285          17.12          69.05          -12.5          17.36         -166.7         -17.74         -132.0          46.16          150.1
    0.9077              -11.75          7.313          17.16          69.02         -12.48          17.34         -166.3         -17.65         -131.7          46.22          150.1
     0.944              -11.77          7.344          17.21          68.98         -12.47          17.32         -166.0         -17.55         -131.5          46.28          150.2
    0.9803               -11.8          7.378          17.27          68.93         -12.45          17.29         -165.5         -17.44         -131.2          46.36          150.2
     1.017              -11.83          7.418          17.33          68.88         -12.43          17.26         -165.1         -17.31         -130.8          46.44          150.2
     1.053              -11.86          7.462           17.4          68.83          -12.4          17.22         -164.5         -17.17         -130.5          46.53          150.2
     1.089               -11.9          7.513          17.49          68.76         -12.37          17.18         -163.9         -17.01         -130.1          46.64          150.2
     1.126              -11.95          7.572          17.58          68.69         -12.34          17.14         -163.2         -16.82         -129.6          46.76          150.2
     1.162               -12.0          7.639          17.69           68.6          -12.3          17.09         -162.4          -16.6         -129.0           46.9          150.3
     1.198              -12.07          7.717          17.82           68.5         -12.26          17.03         -161.5         -16.34         -128.3          47.06          150.3
     1.234              -12.14          7.809          17.97          68.38         -12.21          16.95         -160.4         -16.05         -127.6          47.26          150.3
     1.271              -12.22          7.917          18.14          68.24         -12.15          16.87         -159.1          -15.7         -126.7          47.48          150.4
     1.307              -12.33          8.046          18.35          68.08         -12.08          16.77         -157.6         -15.28         -125.6          47.75          150.4
     1.343              -12.45            8.2           18.6          67.88          -12.0          16.65         -155.7         -14.78         -124.3          48.07          150.5
      1.38              -12.59          8.386           18.9          67.64          -11.9          16.51         -153.5         -14.18         -122.8          48.46          150.5
     1.416              -12.77          8.614          19.27          67.35         -11.77          16.33         -150.8         -13.45         -120.9          48.94          150.6
     1.452               -13.0          8.894          19.72          66.99         -11.62          16.11         -147.5         -12.54         -118.5          49.52          150.7
     1.489              -13.27          9.245          20.29          66.54         -11.43          15.84         -143.3          -11.4         -115.6          50.25          150.8
     1.525              -13.62          9.686          21.01          65.97         -11.19           15.5         -138.0         -9.976         -111.9          51.17          151.0
     1.561              -14.07          10.25          21.92          65.25         -10.88          15.06         -131.3         -8.161         -107.2          52.35          151.2
     1.598              -14.63          10.96          23.08          64.33         -10.49          14.51         -122.8         -5.838         -101.2          53.84          151.5
     1.634              -15.36          11.89          24.57          63.15         -9.985          13.79         -111.8         -2.857         -93.52          55.77          151.8
      1.67              -16.29          13.06          26.48          61.64         -9.342          12.88         -97.72           0.95         -83.69          58.22          152.2
     1.707              -17.46          14.54          28.88          59.75         -8.534          11.73         -80.07          5.738         -71.33          61.31          152.7
     1.743              -18.89          16.35           31.8          57.43         -7.549          10.33         -58.56          11.57         -56.26          65.08          153.4
     1.779              -20.54          18.44          35.19          54.75         -6.408          8.714         -33.62          18.33          -38.8          69.44          154.1
     1.815              -22.33           20.7          38.85          51.85         -5.172          6.959         -6.624          25.66         -19.89          74.17          154.9
     1.852              -24.12          22.96          42.52          48.95         -3.936          5.204          20.38          32.98        -0.9843          78.89          155.7
     1.888              -25.77          25.05          45.91          46.27         -2.794          3.584          45.31          39.74          16.48          83.26          156.5
     1.924              -27.19          26.86          48.83          43.96         -1.809          2.186          66.82          45.58          31.54          87.02          157.1
     1.961              -28.36          28.34          51.23          42.06         -1.001          1.038          84.48          50.36           43.9          90.11          157.7
     1.997              -29.29          29.51          53.14          40.55        -0.3582         0.1257          98.52          54.17          53.74          92.57          158.1
     2.033              -30.02          30.43          54.63          39.37          0.145        -0.5887          109.5          57.15          61.43          94.49          158.4
      2.07              -30.59          31.15          55.79          38.45         0.5371         -1.145          118.1          59.47          67.43          95.99          158.7
     2.106              -31.03          31.71           56.7          37.73         0.8435          -1.58          124.8          61.29          72.12          97.16          158.9
     2.142              -31.38          32.15          57.42          37.16          1.084         -1.922          130.0          62.72           75.8          98.08          159.0
